# xmcd
#
# Track frame offsets: 
#        150
#        17804
#        37885
#        57292
#        73162
#        92062
#        114338
#        130195
#        145649
#        163840
#        179891
#        195792
#        215246
#        230626
#        245693
#        262387
#        275664
#        289881
#        304163
#        334675
#
# Disc length: 4685 seconds
#
# Revision: 0
# Processed by: cddbd v1.5.2PL0 Copyright (c) Steve Scherf et al.
# Submitted via: ExactAudioCopyFreeDBPlugin 1.0
#
DISCID=3d124b14
DTITLE=Various Artist - The best of Firstclass
DYEAR=2018
DGENRE=No, thanks.
TTITLE0=Coldcut - People Hold On
TTITLE1=Robin S - Show Me Love (Stonebridge Edit)
TTITLE2=Basement Jaxx - Red Alert
TTITLE3=M People - Moving On Up
TTITLE4=Adamski - Killer
TTITLE5=Jungle Brothers - I'll House You (Club Mix)
TTITLE6=Fatboy Slim - Right Here Right Now (CamelPhat Radio Edit)
TTITLE7=Byron Stingily - Get Up (Everybody) (Parade Radio Edit)
TTITLE8=Nightcrawlers - Push The Feeling On (Mk Dub Revisited Edit)
TTITLE9=Mel and Kim - Showing Out (Get Fresh At The Weekend)
TTITLE10=Rozalla - Everybody's Free (To Feel Good)
TTITLE11=Route 94 - My Love
TTITLE12=The Shapeshifters - Lola's Theme
TTITLE13=Martin Solveig - Places
TTITLE14=Phil Fuldner Works #2 - Miami Pop (Radio Pop)
TTITLE15=Philip George - Wish You Were Mine (Radio Edit)
TTITLE16=Lilly Wood and The Prick - Prayer In C (Robin Schulz Radio Edit
TTITLE16=)
TTITLE17=Imany - Don't Be So Shy (Filatov and Karas Remix)
TTITLE18=Eddie Amador - House Music (Robosonic Remix)
TTITLE19=Modjo - Lady (Hear Me Tonight) (Radio Edit)
EXTD=
EXTT0=
EXTT1=
EXTT2=
EXTT3=
EXTT4=
EXTT5=
EXTT6=
EXTT7=
EXTT8=
EXTT9=
EXTT10=
EXTT11=
EXTT12=
EXTT13=
EXTT14=
EXTT15=
EXTT16=
EXTT17=
EXTT18=
EXTT19=
PLAYORDER=
